<?xml version="1.0" encoding="utf-8"?>
<!-- Generator: Adobe Illustrator 15.1.0, SVG Export Plug-In . SVG Version: 6.00 Build 0)  -->
<!DOCTYPE svg PUBLIC "-//W3C//DTD SVG 1.1//EN" "http://www.w3.org/Graphics/SVG/1.1/DTD/svg11.dtd">
<svg version="1.1"
	 id="Capa_1" xmlns:dc="http://purl.org/dc/elements/1.1/" xmlns:cc="http://creativecommons.org/ns#" xmlns:rdf="http://www.w3.org/1999/02/22-rdf-syntax-ns#" xmlns:sodipodi="http://sodipodi.sourceforge.net/DTD/sodipodi-0.dtd" xmlns:svg="http://www.w3.org/2000/svg" xmlns:inkscape="http://www.inkscape.org/namespaces/inkscape"
	 xmlns="http://www.w3.org/2000/svg" xmlns:xlink="http://www.w3.org/1999/xlink" x="0px" y="0px" width="600px" height="600px"
	 viewBox="0 -49.75 600 600" enable-background="new 0 -49.75 600 600" xml:space="preserve">
<g transform="translate(0,-952.36218)">
	<path fill="#FFFFFF" d="M67.33,978.557c-20.838,0-37.73,16.892-37.73,37.73c0,20.837,16.892,37.73,37.73,37.73h465.339
		c20.839,0,37.731-16.894,37.731-37.73c0-20.838-16.893-37.73-37.731-37.73H67.33z M67.33,1154.632
		c-20.838,0-37.73,16.892-37.73,37.73c0,20.837,16.892,37.73,37.73,37.73h465.339c20.839,0,37.731-16.893,37.731-37.73
		c0-20.839-16.893-37.73-37.731-37.73H67.33z M67.33,1330.706c-20.838,0-37.73,16.892-37.73,37.731
		c0,20.836,16.892,37.729,37.73,37.729h465.339c20.839,0,37.731-16.894,37.731-37.729c0-20.84-16.893-37.731-37.731-37.731H67.33z"
		/>
</g>
</svg>
